<?xml version="1.0" encoding="UTF-8"?>
<svg id="Layer_1" data-name="Layer 1" xmlns="http://www.w3.org/2000/svg" xmlns:xlink="http://www.w3.org/1999/xlink" viewBox="0 0 597.9 862.69">
  <defs>
    <style>
      .cls-1 {
        fill: none;
      }

      .cls-2 {
        clip-path: url(#clippath-1);
      }

      .cls-3 {
        fill: #e4efff;
      }

      .cls-4 {
        clip-path: url(#clippath);
      }
    </style>
    <clipPath id="clippath">
      <rect class="cls-1" width="597.9" height="862.69"/>
    </clipPath>
    <clipPath id="clippath-1">
      <rect class="cls-1" x="35.03" y="23.81" width="529.76" height="810.96"/>
    </clipPath>
  </defs>
  <g class="cls-4">
    <g class="cls-2">
      <path class="cls-3" d="M473.87,606.34c74.03-54.49,107.72-135.78,68.47-223.95-16.44-36.92-37.38-59.75-81.31-54.64-1.38.16-2.84.01-3.37,1.69-.71,2.23,8.29,30.46,9.89,34.84,6.62,18.14,16.26,35.22,21.93,54,7.46,24.72,10.76,50.49,16.29,75.61,1.14,5.19,4.75,10.15,3.74,15.72-3.93-1.48-8.29-1.82-12.21-3.25-7.36-2.69-19.56-12.96-26.99-17-9.6-5.21-36.4-17.94-46.32-18.68-6.5-.48-2.08,2.54-10.81-1.08-1.53-.64-4.95-.72-5.39-1.15-.47-.46.52-1.81-1.37-3.12-18.04-12.49-74.25-14.55-95.87-10.35-12.01,2.33-3.1,3.42-4.81,5.68-3.48,1.77-5.91-1.25-8.74-1.79-12.02-2.26-64.3,20.46-77.18,27.25-7.16,3.77-33.31,19.55-35.49,26.44-3.69,11.71,9.11,10.75,16.91,9.92,28.94-3.06,48.69-29.58,76.77-39.11,8.65-2.93,39.15-12,34.25,6.3-3.57,13.36-46.82,34.03-59.78,40.11-12.6,5.91-26.35,12.35-39.63,15.81,1.39,2.78,6.4,2.92,4.52,6.97-1.04,2.25-11.62,10.28-14.53,13.48-14.58,15.99-24.58,41.37-25.94,62.97-2.12,33.76,16.46,62.54,34.95,88.91l-1.49.49c-18.5-23.26-37.14-45.02-38.51-76.37-1.52-34.95,11.15-65.35,36.01-89.45-34.95,1.6-67.36,21.57-103.12,14.69-18.86-3.63-41.16-18.82-55.23-31.66-11.79-10.75-18.98-15.62-11.32-32.35,9.07-19.85,43.03-63.03,45.57-79.31,2.46-15.81-5.11-27.49-3.75-42.7.97-10.78,7.79-18.98,7.98-29.49-14.78,1.21-24.47-6.63-19.45-21.95,8.06-24.62,30.65-35.97,20.73-64.75-2.04-5.92-5.74-11.13-8.03-16.93-10.05-25.36-8.97-51.3-13.52-77.4-7.06-40.46-29.73-85.14-31.65-127.18-1.05-22.83,13.78-16.37,29.46-11.49,41.12,12.8,84.81,34.28,117.83,61.98,22.59,18.96,36.33,40.39,69.99,38.98,6.68-.27,22.45-2.51,28.66-4.3,6.43-1.86,15.03-14.24,18.97-19.99,5.74-8.38,10.13-17.76,15.73-26.22,20.6-31.11,64.42-81.71,103.49-47.02,17.17,15.25,31.37,49.57,37.87,71.52,3.48,11.72,4.54,24.03,7.79,35.17,8.84,30.35,23.05,57.02,30.21,89.67,6.19,28.19,5.14,45.54,5.46,73.45.23,19.7,24.7,37.35,35.37,54.54,50.67,81.59,29.16,172.12-39.35,234.2-46.11,41.78-105.17,58.98-151.32,96.42-35.99,29.2-65.53,82.1-34.9,125.76,2.73,3.89,11.71,11.68,12.88,14.1,2.25,4.69-1.22,5.64-4.97,2.98-13.39-9.5-23.61-31.57-25.33-47.6-10.47-97.48,117.96-133.73,179.96-179.37ZM500.52,500.63c.44-.55-4.82-11.47-5.58-12.89-7.18-13.62-22.45-39.47-34.32-48.59-3.15-2.42-11.26-5.35-13.33-7.4-17.76-17.56-55.02-25.06-78.97-36.16-19.6-9.09-48.98-32.3-69.12-33.84-2.59-.2-16.86,2.41-18.47,3.51-1.12.77-.26,3.92-.87,5.99-3.71,12.69-19.61,21.98-32.47,20.4-4.8-.59-12.95-4.73-17.16-4.88-2.94-.12-4.95,2.64-8.84,1.98-6.01-1.02-5.64-12.93-16.57-1.55-4.39,4.57-2.86,8.42-5.05,11.93-2.82,4.51-7.85.96-8.81,1.65-.63.44-5.56,11.35-6.9,13.61-13.63,22.82-28.71,34.69-43.54,54.36-12.95,17.17-20.17,41.58-42.54,48.9,1.97,4.86,1.2,12.48-1.54,16.91-.4.65-8.94,10.04-9.52,10.45-1.57,1.13-4.02,1.41-5.92,1.58-1.29,1.43,3.06,3.74,4.08,4.4,23.56,15.39,56.4,7.09,81.07-1.66,14.1-5,28.87-12.13,40.7-21.23-.76-1.64-2.25.48-2.49.5-4.73.36-10.14,0-14.98,0-6.5,0-12.3-6.79-11.52-13.51,1.18-10.14,21.83-23.58,30.32-28.62,20.51-12.15,42.95-21.09,65.61-28.3-26.1-1.97-57.19,11.39-77.39,27.5-1.61,1.28-9.01,10.82-10.47,5.37-1.34-4.98,15.46-15.91,19.41-18.41,21.85-13.83,50.99-22.56,76.89-21.99,3.5.08,6.89,2.2,11.03,2.11,6.33-.13,15.79-3.52,22.64-4.39,26.25-3.33,59.24-.36,84.26,8.29,22.61,7.83,46.23,13.17,67.72,24.18,11.33,5.81,21.63,13.54,32.64,19.8ZM496.49,299.28c.09-2.33,2.38-7.36.06-8.44-4,9.73-10.89,17.87-18.52,24.94l-10.46,7.01c11.48-.69,22.71,1.12,33.96,3-4.67-8.92-5.43-16.54-5.04-26.51ZM483.53,302.3c11.13-13.85,14.01-24.31,11.85-41.77-4.36-35.16-16.53-68.66-28.82-101.56l-3.07,16.49c2.92,22.76,5.1,46.23-1.2,68.63-3.6,12.78-12.53,27.81-26.69,29.77l18.22,42.72c10.26,7.09,23.5-6.57,29.71-14.28ZM498.52,478.65c-6.06-22.53-9.35-56.39-22.98-75.45-.71-.99-2.32-1.06-2.96-2.25-2.01-3.68-.39-10.27-1.24-14.48-.91-4.47-7.66-16.32-9.78-22.19-1.7-4.67-8.73-32.27-10.05-33.41-.87-.75-7.25,1.03-9.41,1-8.4-.08-19.51-5.49-12.44-14.51l7.93-3.04c-29.53-25.29-67.59-36.14-101.86-52.97-22.25-10.93-67.52-42.04-74.41-66.45-5.87-20.82,3.89-43.01,15.46-59.9-22.43,5.23-46.83,5.54-65.92-9.01,5.94,49.46-41.46,87.08-79.43,41.98-27.99-33.25-19.08-79.57-57.9-112.93-3.49-3-24.94-18.79-28.61-13.39-1.85,2.74-1.07,10.42-.73,13.77,2.53,24.62,18.22,86.58,30.39,107.46,10.62,18.21,28.75,28.76,42.42,43.52,3.46,3.73,12.48,13.65,1.4,10.56l-44.38-43.01c2.96,23.78,3.82,48.46,12.21,71.19,6.2,16.82,15.27,26.76,9.22,46.66-3.56,11.73-18.15,22.92-15.24,35.29,2.56,10.93,15.06,7.59,22.98,9.98,6.63,2,11.61,7.03,15.62,12.35l4.13,10.34c-.88-13.07-3.55-26.57-10.74-37.69-1.93-2.97-9.1-8.92-6.76-12.29,2.66-3.85,9.4,6.28,10.75,8.29,21.69,32.38,10.63,63.33-8.41,92.96-18.71,29.13-41.96,55.5-57.75,86.59,12.66,2.41,30.03-.5,40.89,7.57,4.68,3.48,3.66,8.45,10.4,5.26,14.74-6.96,23.9-29.83,33.2-42.7,14.53-20.11,32.99-34.34,45.54-57.36,10.09-18.51,6.14-20.8,7.95-40.01,1.17-12.43,8.41-27.31,15.22-37.72,2.57-3.92,12.52-19.98,12.9-8.16-14.28,17.25-24.43,37.26-23.25,60.24,13.56-16.89,23.36-44.34,49.99-39.51,10.85,1.97,24.84,13.58,34.54,14.21,3.49.23,8.37-2.18,11.96-2.57,26.46-2.84,45.4,14.44,66.65,26.04,21.74,11.87,43.99,18.08,66.57,27.34,6.46,2.65,18.33,10.08,23.52,11.46.55.15.4-2.02,1.03-2.08.75-.06,10.56,4.34,11.72,5.08,3.77,2.45,16.45,16.53,19.52,20.6,7.56,10.02,12.71,23.11,20.14,33.34ZM433.6,268.84c30.64-9.25,27.5-52.32,25.97-77.9l-12.53,17.92c-.08,20.8,2.1,43.55-13.44,59.98ZM436.03,82.11l14.55,24.9c-5.12-23.04-23.46-65.45-46.27-75.1-29.79-12.61-61.88,24.51-77.4,45.82-4.65,6.38-8.77,13.24-13.16,19.81-.24,2.16.32,1.79,1.5.5,8.66-9.47,15.37-19.82,25.44-28.5,34.82-30.02,68.54-22.47,95.34,12.57ZM444,326.71c.93-.09,3.77-.45,3.58-1.9l-13.97-4.01c-.14,5.87,5.72,6.35,10.39,5.91ZM445.58,311.81c1.29-1.55-14.75-35.13-16.99-36.51-1.59-.99-4.09.66-6.32.48-7.67-.6-15.2-3.02-18.84-10.22-4.41-8.73-2.49-19.13-4.73-28.25-1.93-1.42-32.21,9.89-38.01,7.07-2.19-1.07-3.06-4.52-.35-5.34,13.29-.96,26.43-4.48,38.85-9.1,1.2-9.45,3.11-18.93,5.95-28.02.69-2.22,4.05-16.78,8.03-11.02,1.32,5.44-9.3,31.87-6.53,34.99,12.16-5.13,26.09-12.01,35.6-21.32,30.16-29.54,10.71-85.06-9.22-115.46-51.09-77.89-113.51.37-137.12,54.51-43.05,98.73,44.98,108.34,109.76,142.7,13.99,7.42,26.85,16.66,39.92,25.49ZM427.97,264.79c11.59-9.07,14.81-27.45,13.61-41.37-.17-2-.84-9.93-3.63-7.69-3.85,4.41-30.6,15.8-32.1,18.36-1.97,3.37,2.24,10.84,4.37,13.7,1.65,2.21,16.54,17.21,17.75,17ZM421.12,268.86c.86.12.59-1.86.49-1.98-.11-.13-1.96-.45-3.01-1.46-3.99-3.82-7.52-8.22-11.96-11.55.12,8.9,4.75,16.29,14.48,14.99ZM299.23,496.61c17.87-16.35-1.54-12.75-13.67-9.68-8.55,2.16-18.72,7.16-26.43,11.53-2.42,1.37-15.5,9.41-16.41,10.62-1.51,2,.07,4.01-.76,6.08-1.78,4.47-23.43,15.79-28.19,19.85l-24.89,13.56c1.68.2,3.22-.21,4.81-.67,24.81-7.13,87.11-34.44,105.54-51.29ZM294.88,131.61c2.37-4.88,6.09-9.39,7.86-14.61-3.17,2.02-4.47,5.71-6.96,8.52-10.96,12.39-18.06,14.46-25.17,31.76-9.76,23.73-6.88,42.86,13.15,59.63-11.15-28.41-1.58-59.12,11.12-85.3ZM272.77,371.75l-20.96,13.98c8.09-1.45,18.76-5.16,20.96-13.98ZM269.77,366.26l-25.17-9.77c-3.52-1.01-8.53-2.6-12.08-1.52-6.82,2.07-4.6,17.76.26,22.33,11.46,10.77,27.83-3.21,36.99-11.04ZM224.83,382.74c.84-3.66-4.96-3.57-4.97-1.49,0,1.34,3.6,1.83,4.97,1.49ZM220.35,372.77c1.76-2.31,1.6-5.26,1.49-8-1.73-.45-2,.71-3,1.48-4.32,3.32-9.38,8.39-12.98,12.49l14.49-5.97ZM144.45,172.93c40.35,32.49,76.49-27.42,54.93-54.94-25.89-33.02-98.68-72.04-139.31-81.46-1.01-.24-4.19-1.43-4.04.54,21.87,9.87,40.27,30.76,49.71,52.69,11.95,27.79,13.54,62.9,38.71,83.17ZM114.95,374.75c1.82-6.91.1-24.02-7.93-26.52-12.23-3.81-7.66,7.87-4.23,14.21,2.85,5.28,7.77,8.4,12.16,12.31ZM111.71,386.07c.16-4.94-15.72-18.69-19.23-23.3-13.63,18.62-1.21,37.85-2.48,57.94,5.24-6.37,21.47-27.17,21.71-34.64ZM87.35,534.52c4.62-.8,7.81-13.77,4.39-16.67-1.87-1.6-15.92-3.81-19.24-4.23-6.57-.82-16.58-1.89-23.02-2.04-4.31-.11-7.35,1.11-4.49,5.59,4.46,2.47,18.64,21.78,21.54,22.42,4.7,1.03-1.12-8.86-1.19-11.66-.11-4.97,3.9-7.53,8.4-5.58,3.26,1.41,11.44,12.55,13.61,12.17ZM84.39,344.84c.36-.11,1.77-3.89,1.61-4.04-.1-.1-1.84,0-2.87-.6-3.06-1.82-4-3.75-6.16-5.88-.99-.98-1.26-2.24-2.47-.54-4.33,6.07,2.71,13.18,9.89,11.06ZM82.51,509.61c1.1.09,3.73.73,3.48-.98-3.66-.88-8.09-3.22-11.72-3.77-5.21-.78-22.16-2.1-26.71-1.21-1.69.33-2.46,1.28-3.52,2.48,12.85.79,25.67,2.42,38.47,3.48ZM80.99,538.59c1.34-1.33-6.3-7.91-7.97-7.99-1.51,1.84,6.79,9.16,7.97,7.99Z"/>
    </g>
  </g>
</svg>
